

<svg version="1.0" xmlns="http://www.w3.org/2000/svg"
 width="1300.000000pt" height="1300.000000pt" viewBox="0 0 1300.000000 1300.000000"
 preserveAspectRatio="xMidYMid meet">

<g transform="translate(0.000000,1300.000000) scale(0.100000,-0.100000)"
fill="#700b0b" stroke="none">
<path d="M4010 6490 l0 -4500 20 0 c11 0 161 16 333 35 493 54 859 84 1267
103 l155 7 5 1903 5 1904 669 -1894 c368 -1041 675 -1898 682 -1904 8 -6 92
-13 208 -17 327 -11 835 -52 1281 -103 121 -13 246 -27 278 -31 l57 -6 0 4502
0 4501 -887 -2 -888 -3 -5 -1971 -5 -1970 -689 1950 c-380 1073 -694 1961
-699 1974 l-10 22 -889 0 -888 0 0 -4500z"/>
</g>
</svg>
